<svg width="572" height="264" viewBox="0 0 572 264" fill="none" xmlns="http://www.w3.org/2000/svg">
<path d="M478.76 113.922C482.975 103.541 486.74 93.043 488.695 81.9418C489.685 76.3188 489.777 70.8631 491.061 65.1761C491.463 62.5 494.861 58.7061 497.106 61.9913C497.879 63.8002 497.202 67.157 496.796 68.8078C495.12 75.6337 493.852 82.1951 493.514 89.2033C492.549 109.185 491.016 129.165 492.064 149.176C492.255 152.805 492.396 156.679 492.504 160.298C492.591 163.256 494.708 170.684 493.769 173.032C492.345 174.124 491.112 172.941 489.806 172.009C485.185 162.436 486.683 124.832 487.251 112.357C487.318 110.875 487.638 105.311 487.315 104.588L486.823 104.555C485.192 106.087 483.857 112.875 482.653 115.414C479.53 121.978 476.273 129.08 472.498 135.264C470.898 137.888 467.529 144.246 465.386 146.01C454.015 155.381 452.894 139.778 455.049 132.481C452.476 133.575 447.516 137.409 445.153 139.306C433.887 148.345 406.702 155.911 411.639 131.14C398.08 132.733 391.125 130.276 378.613 125.669C377.773 125.874 376.391 127.058 376.011 127.617C370.956 135.04 370.362 144.256 367.513 152.462C366.632 154.994 363.595 155.905 361.66 154.086C360.398 152.899 360.584 149.012 360.513 147.306C360.845 142.105 361.449 134.448 362.372 129.349C355.046 133.497 335.57 158.734 327.478 144.167C325.68 140.93 325.984 131.207 326.389 127.153C321.363 129.435 311.326 133.138 307.519 136.136C306.252 145.032 303.41 151.213 296.502 157.159C290.285 162.512 282.784 160.688 284.067 151.612C284.802 146.67 289.413 141.656 293.373 138.973C295.152 137.724 300.612 134.956 300.874 133.355C301.717 128.184 300.108 121.974 297.984 117.339C296.614 116.357 295.953 115.643 294.261 115.986C290.885 116.671 288.008 120.88 286.325 123.644C281.73 131.008 280.274 138.909 278.476 147.156C276.435 156.513 274.682 165.348 274.261 174.989C274.187 176.687 273.322 182.927 273.727 184.082C274.353 184.204 274.918 184.31 275.554 184.399C273.545 184.715 273.025 185.481 273.315 187.631L273.555 187.907C271.767 189.993 273.523 205.015 270.336 205.513C263.544 206.574 267.615 191.674 265.69 187.485V184.591C265.827 184.415 265.964 184.239 266.102 184.064C266.51 172.041 267.283 160.037 268.244 148.046C268.797 141.164 268.883 134.019 270.317 127.268C269.321 127.872 268.002 128.724 267.171 129.539C257.69 138.841 248.47 148.461 240.517 159.126C239.381 160.65 238.136 162.175 236.906 163.633C237.832 165.949 238.157 166.919 238.074 169.434C237.936 173.606 235.453 181.68 229.639 179.167C228.726 178.768 228.021 178.006 227.694 177.065C226.195 172.798 229.749 166.476 232.809 163.58C222.486 154.813 209.017 153.664 212.467 135.741C198.407 144.597 180.385 158.19 168.33 139.324C166.631 136.666 163.648 128.647 161.759 127.759C155.277 129.078 150.457 150.282 144.956 151.726C144.401 151.592 144.282 151.548 143.967 151.023C142.24 148.153 143.695 121.919 144.92 117.814C145.237 116.753 145.776 115.646 146.819 115.142C147.562 114.783 148.416 114.893 149.166 115.176C149.888 115.448 150.913 115.944 151.16 116.711C152.681 121.43 149.573 132.248 148.913 137.325C151.734 132.633 158.468 118.736 166.528 123.417C172.663 126.98 172.307 139.387 180.035 142.584C182.412 143.994 185.863 144.317 188.496 143.516C195.757 141.306 205.97 135.807 211.511 130.703C221.46 121.537 228.476 112.472 242.464 109.274C245.676 108.54 250.874 107.255 252.302 111.473L252.145 112.29C250.099 113.308 244.263 114.755 242.132 115.49C224.379 121.614 205.004 145.266 230.714 156.551C231.84 157.045 234.12 158.751 235.164 159.568C236.27 157.401 239.146 153.918 240.762 151.983C249.3 141.76 259.741 129.454 270.579 121.691C271.243 117.219 271.901 104.114 274.229 100.688C275.714 99.7235 278.495 100.17 279.14 101.754C282.378 109.705 277.096 118.95 276.324 126.663C275.972 130.166 273.542 138.792 274.203 141.165L274.602 141.421C275.452 140.356 276.547 135.988 277.106 134.268C280.395 124.164 288.909 104.702 302.432 114.528C307.124 117.936 307.775 125.259 307.829 130.843C311.779 128.588 316.167 126.848 320.331 124.981C322.391 124.058 325.252 122.564 327.242 121.867C327.596 118.992 327.73 112.494 330.138 110.705C330.697 110.29 331.332 110.188 332.006 110.334C332.83 110.513 333.577 111.012 334.005 111.744C336.212 115.501 329.589 138.637 334.561 141.927C340.251 142.359 357.381 125.854 361.969 123.501C362.915 120.3 363.633 110.014 368.369 111.76C369.857 112.309 372.661 116.445 373.197 117.895C372.469 120.29 368.567 123.726 368.605 125.97L369.097 126.367C370.706 125.933 373.347 119.556 377.371 119.312C381.676 119.052 383.585 120.441 387.417 122.216C396.541 126.441 406.536 126.464 416.241 124.236C419.689 121.138 423.205 115.301 427.922 115.995C434.807 117.009 430.234 125.689 426.36 127.891C423.678 129.414 420.571 131.076 418.636 132.978C416.745 140.7 418.489 143.112 426.916 141.711C435.966 140.207 448.864 132.966 454.532 125.875C458.537 120.87 459.734 112.048 468.034 110.189C473.169 108.915 475.727 109.673 478.76 113.922ZM463.978 140.808C468.257 134.355 473.236 122.893 477.039 118.062C474.96 117.247 474.149 116.765 471.936 116.862C466.38 120.424 463.432 126.778 461.979 133.077C461.465 135.308 460.504 140.726 462.206 142.571C463.375 142.512 463.566 141.842 463.978 140.808ZM288.778 155.434C290.339 155.731 291.051 155.792 292.616 154.939C295.809 153.197 300.727 142.843 300.092 139.482C296.394 141.867 284.764 150.352 288.778 155.434ZM422.11 126.139C424.218 125.133 427.491 122.874 427.13 120.206C426.338 119.539 426.635 119.742 425.444 119.613C423.672 120.788 421.969 123.467 421.12 125.392L421.149 126.123C421.727 126.212 421.551 126.238 422.11 126.139Z" fill="#BD9747"/>
<path d="M385.38 184.368C406.839 182.306 425.932 197.975 428.098 219.427C430.263 240.879 414.689 260.05 393.252 262.32C371.665 264.607 352.335 248.899 350.154 227.299C347.976 205.698 363.774 186.444 385.38 184.368ZM392.284 259.425C401.411 257.103 407.373 254.526 412.581 245.94C425.089 225.331 416.48 183.824 386.127 187.533C377.706 188.813 372.999 191.238 367.638 198.446C361.366 206.873 359.629 221.174 360.798 231.333C361.749 239.623 366.252 249.347 372.945 254.212C377.952 257.898 386.067 260.204 392.284 259.425Z" fill="#FCFBFC"/>
<path d="M118.144 43.8988C118.268 45.947 118.416 47.9898 118.417 50.0418C128.521 53.3494 130.886 60.9689 132.232 70.6817C132.397 71.8698 132.511 73.9269 133.293 74.7196C132.841 75.391 132.877 75.7857 132.795 76.5874C133.748 78.4076 136.6 77.9163 138.582 77.9441C136.527 78.1326 135.12 78.1508 133.048 78.1316C132.529 97.9311 131.684 116.484 129.135 136.197C127.035 152.443 124.119 168.174 122.467 184.511L131.346 184.607L130.977 184.653C128.811 184.913 122.268 184.049 121.996 186.486C122.497 187.026 122.741 187.423 123.451 187.572C118.941 188.194 127.431 204.74 117.2 201.619C112.991 194.903 115.875 191.34 114.555 187.792C114.944 187.104 114.932 185.42 114.984 184.544C114.896 172.914 118.485 155.416 120.173 143.49C122.791 124.998 125.291 106.435 125.714 87.7089C125.76 85.6435 125.968 79.5691 125.17 77.8729C120.413 77.8959 112.188 77.7234 107.728 78.1948C107.73 74.3118 107.545 60.5492 108.161 57.67L107.497 57.6077C95.7455 63.7169 79.4169 86.0146 74.9369 98.2987C76.0137 99.009 76.737 99.3866 77.5341 100.411C77.5622 101.024 77.4721 101.467 77.2642 102.047C76.1545 105.142 73.0136 109.22 69.9633 110.62C69.1234 111.005 67.9393 111.398 67.0586 110.918C66.6179 110.678 66.2816 110.191 66.1002 109.736C63.3667 102.867 77.7445 79.985 82.0686 74.1569C85.6066 69.3891 89.9853 64.1746 94.5751 60.4113C96.4895 58.8185 98.4732 57.3116 100.521 55.8952C102.377 54.6336 107.24 52.2539 108.04 50.5091L108.333 50.8422C112.095 50.0798 114.39 50.0447 118.149 50.1319C118.089 47.9537 118.058 46.0927 118.144 43.8988ZM118.067 74.6363C120.823 74.2987 122.631 74.3587 125.389 74.7774C124.944 69.8666 123.224 58.5914 118.286 56.4512L117.952 57.0498C118.233 60.7 118.348 70.98 118.067 74.6363Z" fill="#CCA553"/>
<path d="M108.161 57.67C110.074 55.8786 116.13 54.6129 117.952 57.0498C118.233 60.7 118.348 70.98 118.067 74.6363C120.823 74.2987 122.631 74.3587 125.389 74.7774C125.386 75.5743 125.48 77.238 125.17 77.8729C120.413 77.8959 112.188 77.7234 107.728 78.1948C107.73 74.3118 107.545 60.5492 108.161 57.67Z" fill="#FCFBFC"/>
<path d="M443.218 184.455C455.854 185.168 476.617 182.743 487.603 187.443C493.019 189.76 498.201 193.792 500.395 199.417C502.276 204.237 502.372 209.804 500.226 214.542C496.637 222.47 489.346 225.998 481.666 228.895C491.719 234.456 493.986 243.494 500.057 252.545C502.334 255.943 504.425 258.643 506.884 261.902C503.177 262.112 498.709 261.924 494.88 261.956C487.143 253.467 483.11 241.837 476.512 232.569C475.452 231.077 471.067 229.03 470.528 227.17C471.626 226.575 473.501 226.496 474.81 226.352C491.128 223.963 495.548 203.559 485.428 192.705C478.952 185.759 462.477 187.72 453.644 187.867C453.076 193.363 453.97 199.607 454.018 205.159L453.999 247.425C453.98 250.307 454.305 259.299 453.874 261.49C452.875 262.39 445.885 262.24 443.802 262.342C443.375 256.752 443.502 250.034 443.506 244.377L443.531 218.259C443.541 209.862 443.643 201.581 443.103 193.198C442.924 190.442 443.106 187.225 443.218 184.455Z" fill="#FCFBFC"/>
<path d="M91.7241 248.049L91.7864 202.44C91.8071 197.787 91.1036 190.306 92.1057 185.586C92.2513 184.9 92.814 184.629 93.4313 184.403C94.5515 184.753 94.2245 184.479 94.8395 185.343C95.2534 187.93 95.1857 192.311 95.2135 195.04C95.2355 201.784 95.2183 208.529 95.1617 215.273C95.1454 222.166 96.2238 258.892 94.7386 262.639C93.8247 263.198 93.573 263.003 92.3806 262.997C91.4102 262.684 90.5065 261.991 89.8397 261.224C73.0487 241.886 56.9621 221.957 40.7865 202.104C38.7389 199.591 37.132 197.417 34.6389 195.332C34.8494 199.956 34.1852 208.072 34.2078 213.555L34.1676 241.768C34.1647 245.256 34.6246 259.882 33.2725 262.202L32.8264 262.189C30.958 259.062 31.4596 242.661 31.459 237.945L31.4743 204.824C31.4593 201.806 30.7319 186.355 31.2406 184.682C33.3996 184.549 38.0632 184.168 39.7624 185.77C43.0905 188.91 45.8116 192.835 48.9018 196.245C51.2396 198.824 53.4692 201.662 55.6557 204.376C64.0335 214.586 72.4988 224.723 81.0503 234.788C84.1255 238.474 88.5713 244.695 91.4261 247.734L91.7241 248.049Z" fill="#FCFBFC"/>
<path d="M374.414 0.262131L375.723 1.01716C377.818 3.76066 376.225 39.0691 376.231 45.2604L376.327 66.5268C376.333 68.5987 376.761 77.3421 375.65 78.4858C373.846 78.511 372.169 77.5203 371.023 76.1894C359.804 63.1826 349.522 49.406 338.243 36.3988C331.058 28.112 324.425 19.0016 316.854 11.0624C317.304 17.8503 317.048 25.3826 317.116 32.2512C317.256 46.5389 316.908 61.0111 317.23 75.2888C317.147 76.1869 317.119 76.3539 316.857 77.215C316.161 77.8435 316.151 77.8866 315.273 78.2217C314.545 78.5002 313.363 77.374 313.367 77.0067C313.45 60.8568 313.788 44.6963 313.673 28.5378C313.606 19.16 313.676 9.81265 313.181 0.445142C316.704 0.685637 319.185 0.761647 322.65 1.46269C323.566 2.4416 324.917 4.41156 325.888 5.60318C328.398 8.66702 330.933 11.7104 333.494 14.7334C342.921 25.9003 352.252 37.1458 361.49 48.4689C365.511 53.3941 369.18 58.2273 373.296 63.1474C373.153 60.4422 373.188 57.7189 373.303 55.0127C374.04 37.827 373.111 20.5864 373.801 3.40742C373.846 2.35761 373.932 1.19856 374.414 0.262131Z" fill="#FCFBFC"/>
<path d="M430.515 0.147155C442.177 -0.794706 457.904 2.59267 461.36 15.8975C461.902 18.0348 461.72 20.8943 460.398 22.7505C456.075 28.8259 446.906 21.2859 450.678 15.6197C452.019 13.6024 454.404 13.3565 456.614 12.9896C453.45 7.05158 448.171 4.4534 441.634 3.39911C422.273 0.276183 406.584 11.2828 403.4 30.7846C400.328 49.5778 407.021 72.7078 428.867 75.5037C436.86 76.5095 444.349 75.6612 450.946 70.6328C453.089 68.4259 454.283 67.3112 454.366 63.9596C454.523 57.5285 454.178 51.1032 454.325 44.6628C457.777 44.7075 461.031 44.7992 464.479 44.4836C463.723 52.6435 464.789 68.4687 463.921 77.3239C463.882 77.7084 463.553 77.7129 463.129 77.856C461.356 77.2185 458.377 72.2687 457.026 70.3489C444.802 81.6036 422.053 80.831 408.806 71.5945C377.802 49.9767 391.62 1.35826 430.515 0.147155Z" fill="#FCFBFC"/>
<path d="M542.972 184.685C552.757 184.228 565.527 188.219 568.759 198.549C570.327 203.556 566.852 205.856 562.739 207.135L562.522 207.057C553.466 203.686 556.416 199.539 562.407 195.15C562.634 190.542 548.589 186.963 544.748 187.331C539.546 187.829 533.399 189.504 529.88 193.609C518.102 207.473 537.052 215.09 547.561 219.26C556.407 223.054 571.125 228.216 571.54 239.859C572.112 255.968 557.1 261.537 543.854 262.032C536.308 261.668 528.305 260.122 522.139 255.325C518.096 252.179 513.852 245.345 517.978 240.482C521.155 237.014 528.564 240.398 527.976 245.112C527.638 247.825 524.911 249.618 522.931 251.396C523.426 251.904 523.937 252.398 524.46 252.877C534.612 262.186 563.924 261.563 563.129 244.921C562.27 227.008 518.668 228.424 518.154 206.897C517.799 191.952 530.4 185.51 542.972 184.685Z" fill="#FCFBFC"/>
<path d="M177.738 184.557L216.379 184.625C218.712 184.636 229.865 184.552 231.368 185.046C232.059 185.968 231.943 185.564 232.03 186.639L231.532 187.207C230.69 187.571 229.595 187.871 228.666 187.837C215.211 187.352 201.694 187.958 188.251 187.82C188.231 193.656 188.714 199.501 188.639 205.336C188.411 223.101 189.002 241.103 188.462 258.849L191.882 258.923L221.934 259.283C224.428 259.3 230.841 258.213 232.233 260.33L232.087 260.87C231.534 261.461 230.935 261.953 230.06 261.972C212.906 262.31 194.879 261.129 177.795 262.246C177.262 237.048 177.741 209.933 177.738 184.557Z" fill="#FCFBFC"/>
<path d="M196.955 0.604197C200.206 0.516047 203.954 0.720768 207.191 0.957431C210.415 5.86348 214.754 17.3833 217.212 23.1527C223.347 37.5504 230.147 51.6621 236.104 66.0726C238.993 61.7096 241.74 52.9827 244.248 47.809C251.581 32.6779 257.838 16.9196 264.984 1.71852C265.402 0.83032 267.005 0.291199 267.938 1.10211C268.286 3.10816 265.747 7.94362 264.776 10.0998L245.868 52.7058C244.201 56.4921 236.025 76.8004 234.114 78.2833C233.097 78.5484 232.291 78.6845 231.341 78.1278C228.201 76.2888 213.712 39.6466 211.087 33.5706L202.322 13.5504C200.466 9.32942 198.354 4.97943 196.955 0.604197Z" fill="#FCFBFC"/>
<path d="M131.346 184.607C135.985 184.507 165.849 184.157 167.982 185.254L168.506 185.928C168.347 186.736 168.253 186.97 167.519 187.402C166.358 188.086 146.165 188.008 143.069 187.905C143.334 203.951 143.413 219.999 143.307 236.047C143.315 243.507 143.038 254.308 143.696 261.566C140.794 261.506 135.118 261.237 132.578 261.914C132.351 243.264 132.291 224.611 132.395 205.958C132.381 200.025 131.719 193.288 131.813 187.714C128.913 187.733 126.345 187.714 123.451 187.572C122.741 187.423 122.497 187.026 121.996 186.486C122.268 184.049 128.811 184.913 130.977 184.653L131.346 184.607Z" fill="#FCFBFC"/>
<path d="M275.554 184.399C283.122 185.44 292.188 188.784 296.831 195.079C299.491 198.69 301.283 204.799 300.603 209.277C299.747 214.963 296.656 220.071 292.016 223.465C286.807 227.271 283.729 226.775 279.536 228.924C287.941 233.428 288.462 234.666 293.127 242.803C296.419 248.549 301.58 257.571 306.233 262.128C301.95 262.246 297.591 262.464 293.37 261.7C286.986 254.884 281.082 241.094 275.65 233.129C274.487 231.421 269.656 228.406 269.26 227.16C270.419 226.412 273.038 226.429 274.561 226.179C293.651 223.045 295.445 192.303 276.416 188.372C275.468 188.182 274.513 188.028 273.555 187.907L273.315 187.631C273.025 185.481 273.545 184.715 275.554 184.399Z" fill="#FCFBFC"/>
<path d="M242.324 184.465L265.69 184.591V187.485C262.516 187.965 256.173 187.815 252.865 187.743C253.033 193.819 252.353 200.645 252.294 206.888C252.135 225.336 252.198 243.784 252.483 262.23L242.173 262.358C241.727 255.212 242.014 245.563 242.013 238.129L242.324 184.465Z" fill="#FCFBFC"/>
<path d="M0.208146 184.884C3.19138 184.633 7.74862 184.816 10.8449 184.874C10.6884 210.688 10.7331 236.502 10.9793 262.317C9.5583 262.716 2.39368 262.665 0.233694 262.751C-0.262874 237.545 0.18228 210.183 0.208146 184.884Z" fill="#FCFBFC"/>
<path d="M321.992 184.834L332.744 184.853L332.677 235.07L332.753 252.162C332.76 254.094 333.181 261.601 332.044 262.566C328.749 262.521 325.45 262.553 322.155 262.662C321.864 254.311 322.1 244.893 322.081 236.459C321.918 219.251 321.89 202.042 321.992 184.834Z" fill="#FCFBFC"/>
<path d="M283.486 0.513489C286.379 0.930923 290.636 0.896114 293.667 0.954561L293.248 77.4829C291.013 77.3517 285.514 77.8266 283.046 77.9754C282.669 73.5494 283.001 68.2742 282.86 63.7839C282.515 52.5822 283.199 41.248 283.285 30.1561L283.26 11.1183C283.253 8.18093 283.065 3.19599 283.486 0.513489Z" fill="#FCFBFC"/>
<path d="M172.669 0.335594C175.855 0.874713 179.245 0.858422 182.484 0.961583C182.827 5.53834 182.693 10.881 182.679 15.5143L182.583 39.773C182.581 46.612 182.599 53.4302 182.548 60.2736C182.507 65.7842 182.948 72.1633 182.574 77.6142C179.177 77.7164 175.679 77.7745 172.302 78.0783C171.966 64.9545 172.469 49.5388 172.446 36.0858L172.436 13.75C172.443 9.57822 172.317 4.42817 172.669 0.335594Z" fill="#FCFBFC"/>
<path d="M107.95 0.700327C111.434 0.971164 114.937 0.873754 118.4 0.40937C117.619 12.895 118.24 30.9434 118.144 43.8988C118.058 46.0927 118.089 47.9537 118.149 50.1319C114.39 50.0447 112.095 50.0798 108.333 50.8422L108.04 50.5091C107.646 47.7052 107.854 37.7676 107.855 34.4898L107.95 0.700327Z" fill="#FCFBFC"/>
<path d="M133.293 74.7196C137.695 74.7219 156.053 74.3028 159.296 75.3517L159.735 75.8253C159.352 76.7257 158.907 77.1099 157.986 77.5088C155.666 78.5145 141.954 77.9339 138.582 77.9441C136.6 77.9163 133.748 78.4076 132.795 76.5874C132.877 75.7857 132.841 75.391 133.293 74.7196Z" fill="#FCFBFC"/>
<path d="M196.714 222.937C203.675 222.586 211.529 222.848 218.559 222.81C220.072 222.802 221.673 222.976 222.673 224.112C222.604 225.205 222.786 224.786 221.914 225.624C219.086 225.912 198.117 226.452 196.644 225.315C196.196 224.106 196.357 224.388 196.714 222.937Z" fill="#FCFBFC"/>
<path d="M334.449 91.5757C340.584 92.2621 338.348 98.4651 333.903 100.548C332.875 100.675 332.549 100.645 331.511 100.554C328.072 98.3268 331.639 92.9903 334.449 91.5757Z" fill="#BD9747"/>
<path d="M114.555 187.792C111.567 187.859 108.852 188.216 106.152 186.943L106.01 185.868C108.491 184.198 112.077 184.52 114.984 184.544C114.932 185.42 114.944 187.104 114.555 187.792Z" fill="#FCFBFC"/>
</svg>
